<svg width="79" height="79" viewBox="0 0 79 79" fill="none" xmlns="http://www.w3.org/2000/svg">
<circle cx="39.5" cy="39.5" r="39.5" fill="#20AAFF"/>
<path d="M57.2591 24H21.7409C18.5755 24 16 26.583 16 29.7576V50.2424C16 53.417 18.5755 56 21.7409 56H57.2591C60.4245 56 63 53.417 63 50.2424V29.7582C63.0006 26.583 60.4251 24 57.2591 24ZM54.4538 27.7562L39.5 37.4183L24.5462 27.7562H54.4538ZM57.2591 52.2445H21.7409C20.6404 52.2445 19.7453 51.3461 19.7453 50.2431V29.8646L38.3446 41.8593C38.3695 41.875 38.3964 41.8856 38.422 41.9C38.4488 41.915 38.4763 41.9294 38.5037 41.9432C38.6479 42.0177 38.7965 42.0778 38.9482 42.1172C38.9638 42.1216 38.9794 42.1235 38.995 42.1272C39.1617 42.1667 39.3302 42.1911 39.4988 42.1911H39.5H39.5025C39.671 42.1911 39.8396 42.1673 40.0062 42.1272C40.0218 42.1235 40.0375 42.1216 40.0531 42.1172C40.2047 42.0778 40.3527 42.0177 40.4975 41.9432C40.525 41.9294 40.5524 41.915 40.5793 41.9C40.6049 41.8856 40.6317 41.875 40.6567 41.8593L59.2559 29.8646V50.2424C59.2553 51.3461 58.3596 52.2445 57.2591 52.2445Z" fill="white"/>
</svg>
