<svg width="39" height="38" viewBox="0 0 39 38" fill="none" xmlns="http://www.w3.org/2000/svg">
<path d="M19.5 0C8.77499 0 0 8.56525 0 19.1145C0 28.6526 7.13699 36.5693 16.458 38V24.6466H11.505V19.1145H16.458V14.8986C16.458 10.1104 19.3635 7.4779 23.829 7.4779C25.9545 7.4779 28.1775 7.84035 28.1775 7.84035V12.5522H25.7205C23.3025 12.5522 22.542 14.0211 22.542 15.5281V19.1145H27.963L27.0855 24.6466H22.542V38C27.1369 37.29 31.3212 34.9964 34.3393 31.5331C37.3573 28.07 39.0105 23.6653 39 19.1145C39 8.56525 30.225 0 19.5 0Z" fill="white"/>
</svg>
