<svg width="33" height="33" viewBox="0 0 33 33" fill="none" xmlns="http://www.w3.org/2000/svg">
<path fill-rule="evenodd" clip-rule="evenodd" d="M0 13.3285C0 6.10024 -2.38419e-07 4.49104 2.09906 2.24551C4.19814 -2.38419e-07 7.57653 0 14.3333 0H17.9167C24.6734 0 28.0519 -2.38419e-07 30.1509 2.24551C32.25 4.49104 32.25 6.10024 32.25 13.3285V17.1618C32.25 24.3899 32.25 28.0042 30.1509 30.2496C28.0519 32.4951 24.6734 32.4951 17.9167 32.4951H14.3333C7.57653 32.4951 4.19814 32.4951 2.09906 30.2496C-2.38419e-07 28.0042 0 24.3899 0 17.1618V13.3285ZM26.875 6.62013C26.875 8.20795 25.6717 9.49512 24.1875 9.49512C22.7033 9.49512 21.5 8.20795 21.5 6.62013C21.5 5.0323 22.7033 3.74513 24.1875 3.74513C25.6717 3.74513 26.875 5.0323 26.875 6.62013ZM19.7083 17.1618C19.7083 19.2789 18.1041 20.9951 16.125 20.9951C14.1459 20.9951 12.5417 19.2789 12.5417 17.1618C12.5417 15.0446 14.1459 13.3285 16.125 13.3285C18.1041 13.3285 19.7083 15.0446 19.7083 17.1618ZM23.2917 17.1618C23.2917 21.3959 20.083 24.8285 16.125 24.8285C12.167 24.8285 8.95833 21.3959 8.95833 17.1618C8.95833 12.9277 12.167 9.49512 16.125 9.49512C20.083 9.49512 23.2917 12.9277 23.2917 17.1618Z" fill="white"/>
</svg>
