<svg width="1176" height="485" viewBox="0 0 1176 485" fill="none" xmlns="http://www.w3.org/2000/svg">
<path d="M422.96 357C419.717 357 416.731 356.189 414 354.568C411.355 352.947 409.221 350.813 407.6 348.168C405.979 345.437 405.168 342.451 405.168 339.208V282.632C405.168 279.389 405.979 276.445 407.6 273.8C409.221 271.069 411.355 268.893 414 267.272C416.731 265.651 419.717 264.84 422.96 264.84H479.408C482.651 264.84 485.637 265.651 488.368 267.272C491.099 268.893 493.275 271.069 494.896 273.8C496.517 276.445 497.328 279.389 497.328 282.632V289.8H480.304V283.4C480.304 282.973 480.133 282.632 479.792 282.376C479.451 282.035 479.067 281.864 478.64 281.864H423.6C423.173 281.864 422.789 282.035 422.448 282.376C422.192 282.632 422.064 282.973 422.064 283.4V338.44C422.064 338.867 422.192 339.251 422.448 339.592C422.789 339.848 423.173 339.976 423.6 339.976H478.64C479.067 339.976 479.451 339.848 479.792 339.592C480.133 339.251 480.304 338.867 480.304 338.44V321.8H459.44V304.776H497.328V339.208C497.328 342.451 496.517 345.437 494.896 348.168C493.275 350.813 491.099 352.947 488.368 354.568C485.637 356.189 482.651 357 479.408 357H422.96ZM528.57 357C525.327 357 522.341 356.189 519.61 354.568C516.965 352.947 514.831 350.813 513.21 348.168C511.674 345.523 510.906 342.579 510.906 339.336V311.432H569.53V301.064C569.53 300.637 569.359 300.296 569.018 300.04C568.762 299.699 568.421 299.528 567.994 299.528H510.906V282.76H568.634C571.877 282.76 574.821 283.571 577.466 285.192C580.197 286.813 582.33 288.947 583.866 291.592C585.487 294.237 586.298 297.181 586.298 300.424V357H528.57ZM529.21 340.232H569.53V326.536H527.674V338.696C527.674 339.123 527.802 339.507 528.058 339.848C528.399 340.104 528.783 340.232 529.21 340.232ZM596.787 357V282.76H688.819C692.147 282.76 695.134 283.571 697.779 285.192C700.424 286.813 702.515 288.947 704.051 291.592C705.672 294.237 706.483 297.181 706.483 300.424V357H689.843V301.064C689.843 300.637 689.672 300.296 689.331 300.04C688.99 299.699 688.606 299.528 688.179 299.528H661.683C661.256 299.528 660.872 299.699 660.531 300.04C660.275 300.296 660.147 300.637 660.147 301.064V357H643.251V301.064C643.251 300.637 643.08 300.296 642.739 300.04C642.483 299.699 642.142 299.528 641.715 299.528H615.091C614.664 299.528 614.28 299.699 613.939 300.04C613.683 300.296 613.555 300.637 613.555 301.064V357H596.787ZM735.692 357C732.449 357 729.505 356.189 726.86 354.568C724.215 352.947 722.081 350.813 720.46 348.168C718.839 345.523 718.028 342.579 718.028 339.336V300.424C718.028 297.181 718.839 294.237 720.46 291.592C722.081 288.947 724.215 286.813 726.86 285.192C729.505 283.571 732.449 282.76 735.692 282.76H775.756C778.999 282.76 781.943 283.571 784.588 285.192C787.319 286.813 789.452 288.947 790.988 291.592C792.609 294.237 793.42 297.181 793.42 300.424V328.328H734.796V338.696C734.796 339.123 734.924 339.507 735.18 339.848C735.521 340.104 735.905 340.232 736.332 340.232H793.42V357H735.692ZM734.796 313.224H776.652V301.064C776.652 300.637 776.481 300.296 776.14 300.04C775.884 299.699 775.543 299.528 775.116 299.528H736.332C735.905 299.528 735.521 299.699 735.18 300.04C734.924 300.296 734.796 300.637 734.796 301.064V313.224ZM806.909 357V276.104C806.909 272.861 807.72 269.917 809.341 267.272C810.962 264.627 813.096 262.493 815.741 260.872C818.386 259.251 821.33 258.44 824.573 258.44H852.605V275.336H825.213C824.786 275.336 824.402 275.507 824.061 275.848C823.805 276.104 823.677 276.445 823.677 276.872V282.76H852.605V299.528H823.677V357H806.909ZM879.317 357C876.074 357 873.13 356.189 870.485 354.568C867.84 352.947 865.706 350.813 864.085 348.168C862.464 345.523 861.653 342.579 861.653 339.336V300.424C861.653 297.181 862.464 294.237 864.085 291.592C865.706 288.947 867.84 286.813 870.485 285.192C873.13 283.571 876.074 282.76 879.317 282.76H919.381C922.624 282.76 925.568 283.571 928.213 285.192C930.944 286.813 933.077 288.947 934.613 291.592C936.234 294.237 937.045 297.181 937.045 300.424V328.328H878.421V338.696C878.421 339.123 878.549 339.507 878.805 339.848C879.146 340.104 879.53 340.232 879.957 340.232H937.045V357H879.317ZM878.421 313.224H920.277V301.064C920.277 300.637 920.106 300.296 919.765 300.04C919.509 299.699 919.168 299.528 918.741 299.528H879.957C879.53 299.528 879.146 299.699 878.805 300.04C878.549 300.296 878.421 300.637 878.421 301.064V313.224ZM966.683 357C963.44 357 960.496 356.189 957.851 354.568C955.206 352.947 953.072 350.813 951.451 348.168C949.83 345.523 949.019 342.579 949.019 339.336V336.52H965.787V338.696C965.787 339.123 965.915 339.507 966.171 339.848C966.512 340.104 966.896 340.232 967.323 340.232H1006.11C1006.53 340.232 1006.88 340.104 1007.13 339.848C1007.47 339.507 1007.64 339.123 1007.64 338.696V329.864C1007.64 329.437 1007.47 329.096 1007.13 328.84C1006.88 328.499 1006.53 328.328 1006.11 328.328H966.683C963.44 328.328 960.496 327.517 957.851 325.896C955.206 324.275 953.072 322.141 951.451 319.496C949.83 316.851 949.019 313.907 949.019 310.664V300.424C949.019 297.181 949.83 294.237 951.451 291.592C953.072 288.947 955.206 286.813 957.851 285.192C960.496 283.571 963.44 282.76 966.683 282.76H1006.75C1010.08 282.76 1013.06 283.571 1015.71 285.192C1018.35 286.813 1020.49 288.947 1022.11 291.592C1023.73 294.237 1024.54 297.181 1024.54 300.424V303.24H1007.64V301.064C1007.64 300.637 1007.47 300.296 1007.13 300.04C1006.88 299.699 1006.53 299.528 1006.11 299.528H967.323C966.896 299.528 966.512 299.699 966.171 300.04C965.915 300.296 965.787 300.637 965.787 301.064V309.896C965.787 310.323 965.915 310.707 966.171 311.048C966.512 311.304 966.896 311.432 967.323 311.432H1006.75C1010.08 311.432 1013.06 312.243 1015.71 313.864C1018.35 315.485 1020.49 317.619 1022.11 320.264C1023.73 322.909 1024.54 325.853 1024.54 329.096V339.336C1024.54 342.579 1023.73 345.523 1022.11 348.168C1020.49 350.813 1018.35 352.947 1015.71 354.568C1013.06 356.189 1010.08 357 1006.75 357H966.683ZM1055.07 357C1051.83 357 1048.89 356.189 1046.24 354.568C1043.6 352.947 1041.46 350.813 1039.84 348.168C1038.22 345.523 1037.41 342.579 1037.41 339.336V259.976H1054.18V282.76H1083.11V299.528H1054.18V338.696C1054.18 339.123 1054.31 339.507 1054.56 339.848C1054.9 340.104 1055.29 340.232 1055.71 340.232H1083.11V357H1055.07ZM1110.94 357C1107.7 357 1104.76 356.189 1102.11 354.568C1099.46 352.947 1097.33 350.813 1095.71 348.168C1094.09 345.523 1093.28 342.579 1093.28 339.336V300.424C1093.28 297.181 1094.09 294.237 1095.71 291.592C1097.33 288.947 1099.46 286.813 1102.11 285.192C1104.76 283.571 1107.7 282.76 1110.94 282.76H1151.01C1154.25 282.76 1157.19 283.571 1159.84 285.192C1162.57 286.813 1164.7 288.947 1166.24 291.592C1167.86 294.237 1168.67 297.181 1168.67 300.424V339.336C1168.67 342.579 1167.86 345.523 1166.24 348.168C1164.7 350.813 1162.61 352.947 1159.97 354.568C1157.32 356.189 1154.33 357 1151.01 357H1110.94ZM1111.58 340.232H1150.37C1150.79 340.232 1151.13 340.104 1151.39 339.848C1151.73 339.507 1151.9 339.123 1151.9 338.696V301.064C1151.9 300.637 1151.73 300.296 1151.39 300.04C1151.13 299.699 1150.79 299.528 1150.37 299.528H1111.58C1111.16 299.528 1110.77 299.699 1110.43 300.04C1110.17 300.296 1110.05 300.637 1110.05 301.064V338.696C1110.05 339.123 1110.17 339.507 1110.43 339.848C1110.77 340.104 1111.16 340.232 1111.58 340.232Z" fill="white"/>
<path d="M1122 310H1141V329H1122V310Z" fill="#20AAFF"/>
<path d="M311.161 258.325C311.161 316.99 261.379 382.294 196.498 382.294C131.617 382.294 76.2065 316.99 76.2065 258.325C57.9166 175.126 121.065 125.532 185.946 125.532C250.827 125.532 318.548 149.802 311.161 258.325Z" fill="#FFA647"/>
<path d="M76.9197 282.775C95.3483 289.966 110.735 311.112 104.052 328.239C97.3683 345.366 72.3373 344.797 52.7178 344.797C24.698 339.427 15.6236 316.678 22.3068 299.551C28.99 282.424 43.5895 267.522 76.9197 282.775Z" fill="#FFA647"/>
<path d="M314.383 284.72C297.738 290.806 284.052 310.829 290.365 328.096C296.678 345.363 319.416 346.173 337.245 347.249C362.632 343.485 370.559 321.534 364.246 304.268C357.933 287.001 344.458 271.496 314.383 284.72Z" fill="#FFA647"/>
<path d="M315.03 301.397C315.03 369.969 265.94 428.371 199.311 428.371C132.682 428.371 73.0405 373.134 73.0405 304.562C73.0405 235.991 57.9162 339.384 199.311 339.384C324.175 339.384 315.03 232.825 315.03 301.397Z" fill="#20AAFF"/>
<path d="M291.112 232.106H315.03V322.149H291.112V232.106Z" fill="#20AAFF"/>
<path d="M73.0405 215.927H96.958V315.114H73.0405V215.927Z" fill="#20AAFF"/>
<path d="M145.255 133.945C145.255 152.938 138.072 181.493 92.034 181.493C45.9957 181.493 7.37744 182.382 7.37744 138.869C7.37744 95.356 31.2231 76.3258 77.2614 76.3258C114.193 96.0226 134 94.1994 145.255 133.945Z" fill="#20AAFF"/>
<path d="M145.255 133.945C145.255 152.938 138.072 181.493 92.034 181.493C45.9957 181.493 7.37744 182.382 7.37744 138.869C7.37744 95.356 31.2231 76.3258 77.2614 76.3258C114.193 96.0226 134 94.1994 145.255 133.945Z" fill="#20AAFF"/>
<path d="M273.803 73.4767C278.024 143.822 235.778 162.112 189.74 162.112C143.702 162.112 105.4 151.209 105.4 82.2699C105.4 38.757 146.238 7 192.277 7C239.408 10.1656 262.548 33.7314 273.803 73.4767Z" fill="#20AAFF"/>
<path d="M273.803 73.4767C278.024 143.822 235.778 162.112 189.74 162.112C143.702 162.112 105.4 151.209 105.4 82.2699C105.4 38.757 146.238 7 192.277 7C239.408 10.1656 262.548 33.7314 273.803 73.4767Z" fill="#20AAFF"/>
<path d="M273.803 73.4767C278.024 143.822 235.778 162.112 189.74 162.112C143.702 162.112 105.4 151.209 105.4 82.2699C105.4 38.757 146.238 7 192.277 7C239.408 10.1656 262.548 33.7314 273.803 73.4767Z" fill="#20AAFF"/>
<path d="M273.803 73.4767C278.024 143.822 235.778 162.112 189.74 162.112C143.702 162.112 105.4 151.209 105.4 82.2699C105.4 38.757 146.238 7 192.277 7C239.408 10.1656 262.548 33.7314 273.803 73.4767Z" fill="#20AAFF"/>
<path d="M265.436 111.112C275.285 176.181 251.367 182.512 211.27 182.512C165.62 174.071 175.841 132.849 171.876 123.07C166.6 110.056 172.266 78.4008 218.305 78.4008C265.436 81.5663 260.16 101.615 265.436 111.112Z" fill="#20AAFF"/>
<path d="M265.436 111.112C275.285 176.181 251.367 182.512 211.27 182.512C165.62 174.071 175.841 132.849 171.876 123.07C166.6 110.056 172.266 78.4008 218.305 78.4008C265.436 81.5663 260.16 101.615 265.436 111.112Z" fill="#20AAFF"/>
<path d="M265.436 111.112C275.285 176.181 251.367 182.512 211.27 182.512C165.62 174.071 175.841 132.849 171.876 123.07C166.6 110.056 172.266 78.4008 218.305 78.4008C265.436 81.5663 260.16 101.615 265.436 111.112Z" fill="#20AAFF"/>
<path d="M265.436 111.112C275.285 176.181 251.367 182.512 211.27 182.512C165.62 174.071 175.841 132.849 171.876 123.07C166.6 110.056 172.266 78.4008 218.305 78.4008C265.436 81.5663 260.16 101.615 265.436 111.112Z" fill="#20AAFF"/>
<path d="M177.985 118.137C186.805 179.689 165.384 185.678 129.471 185.678C88.585 177.693 97.7397 138.699 94.1889 129.449C89.4635 117.139 94.538 87.1941 135.772 87.1941C177.985 90.1886 173.259 109.153 177.985 118.137Z" fill="#20AAFF"/>
<path d="M177.985 118.137C186.805 179.689 165.384 185.678 129.471 185.678C88.585 177.693 97.7397 138.699 94.1889 129.449C89.4635 117.139 94.538 87.1941 135.772 87.1941C177.985 90.1886 173.259 109.153 177.985 118.137Z" fill="#20AAFF"/>
<path d="M177.985 118.137C186.805 179.689 165.384 185.678 129.471 185.678C88.585 177.693 97.7397 138.699 94.1889 129.449C89.4635 117.139 94.538 87.1941 135.772 87.1941C177.985 90.1886 173.259 109.153 177.985 118.137Z" fill="#20AAFF"/>
<path d="M177.985 118.137C186.805 179.689 165.384 185.678 129.471 185.678C88.585 177.693 97.7397 138.699 94.1889 129.449C89.4635 117.139 94.538 87.1941 135.772 87.1941C177.985 90.1886 173.259 109.153 177.985 118.137Z" fill="#20AAFF"/>
<path d="M71.8018 223.837C71.8018 282.928 71.8018 276.948 67.5811 276.948C-18.9442 270.969 12.0079 186.906 33.4635 181.982C45.903 179.127 55.9418 167.388 94.8478 167.388C134.678 170.297 112.082 221.203 71.8018 223.837Z" fill="#20AAFF"/>
<path d="M71.8018 223.837C71.8018 282.928 71.8018 276.948 67.5811 276.948C-18.9442 270.969 12.0079 186.906 33.4635 181.982C45.903 179.127 55.9418 167.388 94.8478 167.388C134.678 170.297 112.082 221.203 71.8018 223.837Z" fill="#20AAFF"/>
<path d="M71.8018 223.837C71.8018 282.928 71.8018 276.948 67.5811 276.948C-18.9442 270.969 12.0079 186.906 33.4635 181.982C45.903 179.127 55.9418 167.388 94.8478 167.388C134.678 170.297 112.082 221.203 71.8018 223.837Z" fill="#20AAFF"/>
<path d="M71.8018 223.837C71.8018 282.928 71.8018 276.948 67.5811 276.948C-18.9442 270.969 12.0079 186.906 33.4635 181.982C45.903 179.127 55.9418 167.388 94.8478 167.388C134.678 170.297 112.082 221.203 71.8018 223.837Z" fill="#20AAFF"/>
<path d="M315.03 237.734C315.03 289.253 314.487 277.831 318.195 277.831C394.23 272.618 373.278 194.544 354.423 190.251C343.492 187.761 353.44 181.809 319.251 181.809C284.25 184.345 279.633 235.437 315.03 237.734Z" fill="#20AAFF"/>
<path d="M315.03 237.734C315.03 289.253 314.487 277.831 318.195 277.831C394.23 272.618 373.278 194.544 354.423 190.251C343.492 187.761 353.44 181.809 319.251 181.809C284.25 184.345 279.633 235.437 315.03 237.734Z" fill="#20AAFF"/>
<path d="M315.03 237.734C315.03 289.253 314.487 277.831 318.195 277.831C394.23 272.618 373.278 194.544 354.423 190.251C343.492 187.761 353.44 181.809 319.251 181.809C284.25 184.345 279.633 235.437 315.03 237.734Z" fill="#20AAFF"/>
<path d="M315.03 237.734C315.03 289.253 314.487 277.831 318.195 277.831C394.23 272.618 373.278 194.544 354.423 190.251C343.492 187.761 353.44 181.809 319.251 181.809C284.25 184.345 279.633 235.437 315.03 237.734Z" fill="#20AAFF"/>
<path d="M364.985 133.271C364.985 180.051 315.407 191.658 277.395 191.658C265.779 185.326 252.783 166.197 252.783 105.132C252.783 66.5894 269.353 101.615 302.729 82.27C335.44 75.2353 355.692 98.0649 364.985 133.271Z" fill="#20AAFF"/>
<path d="M364.985 133.271C364.985 180.051 315.407 191.658 277.395 191.658C265.779 185.326 252.783 166.197 252.783 105.132C252.783 66.5894 269.353 101.615 302.729 82.27C335.44 75.2353 355.692 98.0649 364.985 133.271Z" fill="#20AAFF"/>
<path d="M364.985 133.271C364.985 180.051 315.407 191.658 277.395 191.658C265.779 185.326 252.783 166.197 252.783 105.132C252.783 66.5894 269.353 101.615 302.729 82.27C335.44 75.2353 355.692 98.0649 364.985 133.271Z" fill="#20AAFF"/>
<path d="M364.985 133.271C364.985 180.051 315.407 191.658 277.395 191.658C265.779 185.326 252.783 166.197 252.783 105.132C252.783 66.5894 269.353 101.615 302.729 82.27C335.44 75.2353 355.692 98.0649 364.985 133.271Z" fill="#20AAFF"/>
<path d="M69.7082 278.942C4.44792 262.966 -0.291654 358.114 74.4478 343.912" stroke="#1D2F6F" stroke-width="13" stroke-linecap="round"/>
<path d="M76.206 339.032C72.6886 328.128 70.2271 298.934 39.2748 304.562" stroke="#1D2F6F" stroke-width="10" stroke-linecap="round"/>
<path d="M318.366 279.646C381.953 263.67 386.571 358.817 313.748 344.616" stroke="#1D2F6F" stroke-width="13" stroke-linecap="round"/>
<path d="M311.694 339.735C315.143 328.832 317.556 299.638 347.901 305.266" stroke="#1D2F6F" stroke-width="10" stroke-linecap="round"/>
<path d="M315.07 276.408C393.513 286.315 384.715 178.271 331.913 183.216C401.2 153.35 347.037 35.4896 273.878 93.8768C294.278 -20.4351 84.6479 -23.2489 107.862 93.8768C27.6678 30.9173 -36.0109 156.164 43.4957 183.216C-4.55815 183.216 -3.27283 284.664 69.5416 276.408" stroke="#1D2F6F" stroke-width="13" stroke-linecap="round" stroke-linejoin="round"/>
<path d="M72.3863 228.532V303.703C72.3863 365.858 118.872 418.637 180.415 427.34C191.503 428.908 202.875 428.878 213.95 427.218C272.075 418.508 315.079 368.579 315.079 309.805V238.732M65 225.015C88.5658 227.828 116.352 206.725 116.352 178.938C133.235 194.062 172.629 180.697 176.498 161C193.733 187.731 244.382 189.842 261.968 167.331C261.968 187.731 280.61 197.58 297.844 189.842C280.61 216.573 297.844 240.491 323.169 237.325" stroke="#1D2F6F" stroke-width="13" stroke-linecap="round" stroke-linejoin="round"/>
<path d="M96.9585 215.927V298.672C96.9585 353.11 291.113 355.598 291.113 298.672V215.927" stroke="#1D2F6F" stroke-width="10" stroke-linecap="round"/>
<path d="M264.947 342.843C264.947 347.969 263.811 351.02 262.316 352.925C260.837 354.808 258.507 356.209 254.814 357.037C247.024 358.783 235.486 357.544 220.507 355.463C202.885 353.014 185.056 353.049 167.446 355.505C152.647 357.568 141.095 358.78 133.261 357.017C129.535 356.179 127.165 354.767 125.661 352.872C124.147 350.965 123 347.929 123 342.843C123 330.026 130.323 317.936 143.143 308.85C155.952 299.772 173.907 294 193.973 294C214.039 294 231.995 299.772 244.804 308.85C257.624 317.936 264.947 330.026 264.947 342.843Z" fill="#20AAFF" stroke="#1D2F6F" stroke-width="10"/>
<path d="M229.351 318.801C228.553 322.205 225.147 324.318 221.742 323.521C218.338 322.723 216.225 319.316 217.023 315.912C217.821 312.507 221.228 310.395 224.632 311.192C228.036 311.99 230.149 315.397 229.351 318.801Z" fill="#1D2F6F"/>
<path d="M225.82 333.869C225.022 337.273 221.615 339.386 218.211 338.588C214.807 337.79 212.694 334.384 213.492 330.979C214.29 327.575 217.696 325.462 221.1 326.26C224.505 327.058 226.618 330.464 225.82 333.869Z" fill="#1D2F6F"/>
<path d="M244.189 326.182C243.392 329.587 239.985 331.7 236.581 330.902C233.176 330.104 231.063 326.697 231.861 323.293C232.659 319.889 236.066 317.776 239.47 318.574C242.874 319.371 244.987 322.778 244.189 326.182Z" fill="#1D2F6F"/>
<path d="M240.658 341.25C239.86 344.654 236.453 346.767 233.049 345.969C229.645 345.171 227.532 341.765 228.33 338.361C229.128 334.956 232.534 332.843 235.939 333.641C239.343 334.439 241.456 337.846 240.658 341.25Z" fill="#1D2F6F"/>
<circle cx="163.438" cy="327.524" r="11.5" fill="#20AAFF" stroke="#1D2F6F" stroke-width="10"/>
<rect x="118" y="244" width="28" height="54" rx="14" fill="#1D2F6F"/>
<rect x="242" y="244" width="28" height="54" rx="14" fill="#1D2F6F"/>
<rect x="305.297" y="475.138" width="33" height="175.803" rx="5" transform="rotate(-149.565 305.297 475.138)" fill="#D9D9D9" stroke="#1D2F6F" stroke-width="10"/>
<rect x="317.832" y="348.936" width="83.7915" height="97.5627" rx="20.5" transform="rotate(31.4445 317.832 348.936)" fill="#FFA647" stroke="#1D2F6F" stroke-width="13"/>
<path d="M438.591 317.68C440.308 314.527 439.144 310.579 435.992 308.862L371.548 273.763C369.857 272.841 367.844 272.718 366.053 273.424L315.256 293.466C310.125 295.491 309.689 302.583 314.533 305.221L409.734 357.073C412.886 358.79 416.834 357.626 418.551 354.474L438.591 317.68Z" fill="white" stroke="#1D2F6F" stroke-width="13"/>
</svg>
