<svg width="389" height="144" viewBox="0 0 389 144" fill="none" xmlns="http://www.w3.org/2000/svg">
<path d="M122.785 106.353C121.639 106.353 120.584 106.067 119.62 105.494C118.685 104.922 117.932 104.169 117.359 103.236C116.787 102.272 116.5 101.218 116.5 100.073V80.1052C116.5 78.9608 116.787 77.9217 117.359 76.9881C117.932 76.0243 118.685 75.2563 119.62 74.6841C120.584 74.1118 121.639 73.8257 122.785 73.8257H142.722C143.868 73.8257 144.923 74.1118 145.887 74.6841C146.852 75.2563 147.62 76.0243 148.193 76.9881C148.766 77.9217 149.052 78.9608 149.052 80.1052V82.6351H143.039V80.3763C143.039 80.2257 142.979 80.1052 142.858 80.0149C142.737 79.8944 142.602 79.8342 142.451 79.8342H123.011C122.86 79.8342 122.724 79.8944 122.604 80.0149C122.513 80.1052 122.468 80.2257 122.468 80.3763V99.8022C122.468 99.9528 122.513 100.088 122.604 100.209C122.724 100.299 122.86 100.344 123.011 100.344H142.451C142.602 100.344 142.737 100.299 142.858 100.209C142.979 100.088 143.039 99.9528 143.039 99.8022V93.9292H135.67V87.9208H149.052V100.073C149.052 101.218 148.766 102.272 148.193 103.236C147.62 104.169 146.852 104.922 145.887 105.494C144.923 106.067 143.868 106.353 142.722 106.353H122.785ZM160.087 106.353C158.942 106.353 157.887 106.067 156.922 105.494C155.988 104.922 155.234 104.169 154.662 103.236C154.119 102.302 153.848 101.263 153.848 100.118V90.27H174.554V86.6107C174.554 86.4601 174.494 86.3396 174.374 86.2492C174.283 86.1288 174.163 86.0685 174.012 86.0685H153.848V80.1504H174.238C175.383 80.1504 176.423 80.4365 177.358 81.0088C178.322 81.581 179.076 82.334 179.618 83.2676C180.191 84.2012 180.477 85.2403 180.477 86.3848V106.353H160.087ZM160.313 100.435H174.554V95.6008H159.771V99.8925C159.771 100.043 159.816 100.179 159.906 100.299C160.027 100.389 160.162 100.435 160.313 100.435ZM184.182 106.353V80.1504H216.688C217.863 80.1504 218.918 80.4365 219.853 81.0088C220.787 81.581 221.526 82.334 222.068 83.2676C222.641 84.2012 222.927 85.2403 222.927 86.3848V106.353H217.05V86.6107C217.05 86.4601 216.989 86.3396 216.869 86.2492C216.748 86.1288 216.613 86.0685 216.462 86.0685H207.103C206.953 86.0685 206.817 86.1288 206.696 86.2492C206.606 86.3396 206.561 86.4601 206.561 86.6107V106.353H200.593V86.6107C200.593 86.4601 200.533 86.3396 200.412 86.2492C200.322 86.1288 200.201 86.0685 200.05 86.0685H190.647C190.496 86.0685 190.36 86.1288 190.24 86.2492C190.149 86.3396 190.104 86.4601 190.104 86.6107V106.353H184.182ZM233.245 106.353C232.099 106.353 231.059 106.067 230.125 105.494C229.191 104.922 228.437 104.169 227.864 103.236C227.292 102.302 227.005 101.263 227.005 100.118V86.3848C227.005 85.2403 227.292 84.2012 227.864 83.2676C228.437 82.334 229.191 81.581 230.125 81.0088C231.059 80.4365 232.099 80.1504 233.245 80.1504H247.395C248.541 80.1504 249.581 80.4365 250.515 81.0088C251.479 81.581 252.233 82.334 252.776 83.2676C253.348 84.2012 253.635 85.2403 253.635 86.3848V96.2332H232.928V99.8925C232.928 100.043 232.973 100.179 233.064 100.299C233.184 100.389 233.32 100.435 233.471 100.435H253.635V106.353H233.245ZM232.928 90.9024H247.712V86.6107C247.712 86.4601 247.652 86.3396 247.53 86.2492C247.441 86.1288 247.32 86.0685 247.169 86.0685H233.471C233.32 86.0685 233.184 86.1288 233.064 86.2492C232.973 86.3396 232.928 86.4601 232.928 86.6107V90.9024ZM258.399 106.353V77.8012C258.399 76.6568 258.685 75.6177 259.258 74.6841C259.83 73.7504 260.584 72.9975 261.518 72.4252C262.452 71.853 263.492 71.5669 264.638 71.5669H274.539V77.5302H264.864C264.713 77.5302 264.577 77.5904 264.457 77.7109C264.366 77.8012 264.321 77.9217 264.321 78.0723V80.1504H274.539V86.0685H264.321V106.353H258.399ZM283.974 106.353C282.828 106.353 281.789 106.067 280.854 105.494C279.92 104.922 279.166 104.169 278.594 103.236C278.021 102.302 277.735 101.263 277.735 100.118V86.3848C277.735 85.2403 278.021 84.2012 278.594 83.2676C279.166 82.334 279.92 81.581 280.854 81.0088C281.789 80.4365 282.828 80.1504 283.974 80.1504H298.125C299.27 80.1504 300.31 80.4365 301.244 81.0088C302.209 81.581 302.962 82.334 303.505 83.2676C304.077 84.2012 304.364 85.2403 304.364 86.3848V96.2332H283.657V99.8925C283.657 100.043 283.702 100.179 283.793 100.299C283.913 100.389 284.049 100.435 284.2 100.435H304.364V106.353H283.974ZM283.657 90.9024H298.441V86.6107C298.441 86.4601 298.381 86.3396 298.26 86.2492C298.17 86.1288 298.049 86.0685 297.899 86.0685H284.2C284.049 86.0685 283.913 86.1288 283.793 86.2492C283.702 86.3396 283.657 86.4601 283.657 86.6107V90.9024ZM314.832 106.353C313.687 106.353 312.647 106.067 311.712 105.494C310.778 104.922 310.024 104.169 309.452 103.236C308.879 102.302 308.593 101.263 308.593 100.118V99.1245H314.515V99.8925C314.515 100.043 314.561 100.179 314.651 100.299C314.772 100.389 314.907 100.435 315.058 100.435H328.757C328.907 100.435 329.028 100.389 329.118 100.299C329.239 100.179 329.299 100.043 329.299 99.8925V96.7754C329.299 96.6248 329.239 96.5043 329.118 96.414C329.028 96.2935 328.907 96.2332 328.757 96.2332H314.832C313.687 96.2332 312.647 95.9471 311.712 95.3749C310.778 94.8027 310.024 94.0497 309.452 93.1161C308.879 92.1824 308.593 91.1434 308.593 89.9989V86.3848C308.593 85.2403 308.879 84.2012 309.452 83.2676C310.024 82.334 310.778 81.581 311.712 81.0088C312.647 80.4365 313.687 80.1504 314.832 80.1504H328.983C330.158 80.1504 331.213 80.4365 332.148 81.0088C333.082 81.581 333.835 82.334 334.408 83.2676C334.981 84.2012 335.267 85.2403 335.267 86.3848V87.3787H329.299V86.6107C329.299 86.4601 329.239 86.3396 329.118 86.2492C329.028 86.1288 328.907 86.0685 328.757 86.0685H315.058C314.907 86.0685 314.772 86.1288 314.651 86.2492C314.561 86.3396 314.515 86.4601 314.515 86.6107V89.7278C314.515 89.8784 314.561 90.014 314.651 90.1344C314.772 90.2248 314.907 90.27 315.058 90.27H328.983C330.158 90.27 331.213 90.5561 332.148 91.1283C333.082 91.7005 333.835 92.4535 334.408 93.3871C334.981 94.3208 335.267 95.3598 335.267 96.5043V100.118C335.267 101.263 334.981 102.302 334.408 103.236C333.835 104.169 333.082 104.922 332.148 105.494C331.213 106.067 330.158 106.353 328.983 106.353H314.832ZM346.052 106.353C344.906 106.353 343.867 106.067 342.932 105.494C341.998 104.922 341.244 104.169 340.672 103.236C340.099 102.302 339.813 101.263 339.813 100.118V72.109H345.735V80.1504H355.953V86.0685H345.735V99.8925C345.735 100.043 345.78 100.179 345.871 100.299C345.991 100.389 346.127 100.435 346.278 100.435H355.953V106.353H346.052ZM365.785 106.353C364.64 106.353 363.6 106.067 362.666 105.494C361.731 104.922 360.978 104.169 360.405 103.236C359.832 102.302 359.546 101.263 359.546 100.118V86.3848C359.546 85.2403 359.832 84.2012 360.405 83.2676C360.978 82.334 361.731 81.581 362.666 81.0088C363.6 80.4365 364.64 80.1504 365.785 80.1504H379.936C381.082 80.1504 382.121 80.4365 383.056 81.0088C384.02 81.581 384.774 82.334 385.316 83.2676C385.889 84.2012 386.175 85.2403 386.175 86.3848V100.118C386.175 101.263 385.889 102.302 385.316 103.236C384.774 104.169 384.035 104.922 383.101 105.494C382.167 106.067 381.112 106.353 379.936 106.353H365.785ZM366.011 100.435H379.71C379.861 100.435 379.981 100.389 380.072 100.299C380.192 100.179 380.253 100.043 380.253 99.8925V86.6107C380.253 86.4601 380.192 86.3396 380.072 86.2492C379.981 86.1288 379.861 86.0685 379.71 86.0685H366.011C365.861 86.0685 365.725 86.1288 365.604 86.2492C365.514 86.3396 365.469 86.4601 365.469 86.6107V99.8925C365.469 100.043 365.514 100.179 365.604 100.299C365.725 100.389 365.861 100.435 366.011 100.435Z" fill="white"/>
<path d="M369.22 89.4116H376.756V96.941H369.22V89.4116Z" fill="#20AAFF"/>
<path d="M92.3991 76.7812C92.3991 94.0445 77.7384 113.261 58.6314 113.261C39.5245 113.261 23.2065 94.0445 23.2065 76.7812C17.8202 52.2981 36.417 37.7041 55.524 37.7041C74.631 37.7041 94.5741 44.8458 92.3991 76.7812Z" fill="white"/>
<path d="M23.4165 83.976C28.8437 86.0921 33.3748 92.3149 31.4067 97.3545C29.4386 102.394 22.0671 102.227 16.2893 102.227C8.03765 100.647 5.36529 93.9528 7.33344 88.9128C9.3016 83.8728 13.601 79.4877 23.4165 83.976Z" fill="white"/>
<path d="M93.3477 84.5483C88.4456 86.3392 84.4153 92.2315 86.2745 97.313C88.1336 102.393 94.8302 102.632 100.08 102.949C107.556 101.841 109.891 95.3817 108.032 90.3006C106.172 85.2195 102.204 80.6569 93.3477 84.5483Z" fill="white"/>
<path d="M93.5383 89.4558C93.5383 109.635 79.0817 126.821 59.4599 126.821C39.838 126.821 22.2741 110.566 22.2741 90.3874C22.2741 70.2087 17.8201 100.634 59.4599 100.634C96.2318 100.634 93.5383 69.2772 93.5383 89.4558Z" fill="#505050"/>
<path d="M86.4946 69.0659H93.5383V95.5626H86.4946V69.0659Z" fill="#505050"/>
<path d="M22.2742 64.3047H29.3177V93.4926H22.2742V64.3047Z" fill="#505050"/>
<path d="M43.5408 40.1797C43.5408 45.7689 41.4255 54.1716 27.8675 54.1716C14.3096 54.1716 2.93677 54.4332 2.93677 41.6287C2.93677 28.8241 9.95919 23.2241 23.5171 23.2241C34.3932 29.0203 40.2262 28.4838 43.5408 40.1797Z" fill="#505050"/>
<path d="M43.5408 40.1797C43.5408 45.7689 41.4255 54.1716 27.8675 54.1716C14.3096 54.1716 2.93677 54.4332 2.93677 41.6287C2.93677 28.8241 9.95919 23.2241 23.5171 23.2241C34.3932 29.0203 40.2262 28.4838 43.5408 40.1797Z" fill="#505050"/>
<path d="M81.3974 22.3859C82.6404 43.0865 70.1993 48.4687 56.6414 48.4687C43.0834 48.4687 31.8037 45.2601 31.8037 24.9735C31.8037 12.1689 43.8304 2.82373 57.3883 2.82373C71.2683 3.75526 78.0828 10.69 81.3974 22.3859Z" fill="#505050"/>
<path d="M81.3974 22.3859C82.6404 43.0865 70.1993 48.4687 56.6414 48.4687C43.0834 48.4687 31.8037 45.2601 31.8037 24.9735C31.8037 12.1689 43.8304 2.82373 57.3883 2.82373C71.2683 3.75526 78.0828 10.69 81.3974 22.3859Z" fill="#505050"/>
<path d="M81.3974 22.3859C82.6404 43.0865 70.1993 48.4687 56.6414 48.4687C43.0834 48.4687 31.8037 45.2601 31.8037 24.9735C31.8037 12.1689 43.8304 2.82373 57.3883 2.82373C71.2683 3.75526 78.0828 10.69 81.3974 22.3859Z" fill="#505050"/>
<path d="M81.3974 22.3859C82.6404 43.0865 70.1993 48.4687 56.6414 48.4687C43.0834 48.4687 31.8037 45.2601 31.8037 24.9735C31.8037 12.1689 43.8304 2.82373 57.3883 2.82373C71.2683 3.75526 78.0828 10.69 81.3974 22.3859Z" fill="#505050"/>
<path d="M78.9333 33.4604C81.8335 52.6084 74.79 54.4715 62.9817 54.4715C49.538 51.9874 52.548 39.8571 51.3806 36.9794C49.8268 33.1498 51.4954 23.8345 65.0533 23.8345C78.9333 24.766 77.3795 30.6657 78.9333 33.4604Z" fill="#505050"/>
<path d="M78.9333 33.4604C81.8335 52.6084 74.79 54.4715 62.9817 54.4715C49.538 51.9874 52.548 39.8571 51.3806 36.9794C49.8268 33.1498 51.4954 23.8345 65.0533 23.8345C78.9333 24.766 77.3795 30.6657 78.9333 33.4604Z" fill="#505050"/>
<path d="M78.9333 33.4604C81.8335 52.6084 74.79 54.4715 62.9817 54.4715C49.538 51.9874 52.548 39.8571 51.3806 36.9794C49.8268 33.1498 51.4954 23.8345 65.0533 23.8345C78.9333 24.766 77.3795 30.6657 78.9333 33.4604Z" fill="#505050"/>
<path d="M78.9333 33.4604C81.8335 52.6084 74.79 54.4715 62.9817 54.4715C49.538 51.9874 52.548 39.8571 51.3806 36.9794C49.8268 33.1498 51.4954 23.8345 65.0533 23.8345C78.9333 24.766 77.3795 30.6657 78.9333 33.4604Z" fill="#505050"/>
<path d="M53.1795 35.5279C55.7771 53.6409 49.4686 55.4033 38.8926 55.4033C26.8519 53.0535 29.5479 41.5788 28.5022 38.8567C27.1105 35.2341 28.605 26.4224 40.748 26.4224C53.1795 27.3035 51.7879 32.8843 53.1795 35.5279Z" fill="#505050"/>
<path d="M53.1795 35.5279C55.7771 53.6409 49.4686 55.4033 38.8926 55.4033C26.8519 53.0535 29.5479 41.5788 28.5022 38.8567C27.1105 35.2341 28.605 26.4224 40.748 26.4224C53.1795 27.3035 51.7879 32.8843 53.1795 35.5279Z" fill="#505050"/>
<path d="M53.1795 35.5279C55.7771 53.6409 49.4686 55.4033 38.8926 55.4033C26.8519 53.0535 29.5479 41.5788 28.5022 38.8567C27.1105 35.2341 28.605 26.4224 40.748 26.4224C53.1795 27.3035 51.7879 32.8843 53.1795 35.5279Z" fill="#505050"/>
<path d="M53.1795 35.5279C55.7771 53.6409 49.4686 55.4033 38.8926 55.4033C26.8519 53.0535 29.5479 41.5788 28.5022 38.8567C27.1105 35.2341 28.605 26.4224 40.748 26.4224C53.1795 27.3035 51.7879 32.8843 53.1795 35.5279Z" fill="#505050"/>
<path d="M21.9092 66.6323C21.9092 84.0208 21.9092 82.2613 20.6662 82.2613C-4.81487 80.5018 4.30031 55.7644 10.6188 54.3154C14.2822 53.4752 17.2386 50.021 28.6961 50.021C40.4257 50.877 33.7715 65.857 21.9092 66.6323Z" fill="#505050"/>
<path d="M21.9092 66.6323C21.9092 84.0208 21.9092 82.2613 20.6662 82.2613C-4.81487 80.5018 4.30031 55.7644 10.6188 54.3154C14.2822 53.4752 17.2386 50.021 28.6961 50.021C40.4257 50.877 33.7715 65.857 21.9092 66.6323Z" fill="#505050"/>
<path d="M21.9092 66.6323C21.9092 84.0208 21.9092 82.2613 20.6662 82.2613C-4.81487 80.5018 4.30031 55.7644 10.6188 54.3154C14.2822 53.4752 17.2386 50.021 28.6961 50.021C40.4257 50.877 33.7715 65.857 21.9092 66.6323Z" fill="#505050"/>
<path d="M21.9092 66.6323C21.9092 84.0208 21.9092 82.2613 20.6662 82.2613C-4.81487 80.5018 4.30031 55.7644 10.6188 54.3154C14.2822 53.4752 17.2386 50.021 28.6961 50.021C40.4257 50.877 33.7715 65.857 21.9092 66.6323Z" fill="#505050"/>
<path d="M93.5382 70.7217C93.5382 85.8823 93.3782 82.5211 94.4704 82.5211C116.862 80.987 110.692 58.0121 105.139 56.7488C101.92 56.0163 104.85 54.2646 94.7812 54.2646C84.4737 55.011 83.114 70.0458 93.5382 70.7217Z" fill="#505050"/>
<path d="M93.5382 70.7217C93.5382 85.8823 93.3782 82.5211 94.4704 82.5211C116.862 80.987 110.692 58.0121 105.139 56.7488C101.92 56.0163 104.85 54.2646 94.7812 54.2646C84.4737 55.011 83.114 70.0458 93.5382 70.7217Z" fill="#505050"/>
<path d="M93.5382 70.7217C93.5382 85.8823 93.3782 82.5211 94.4704 82.5211C116.862 80.987 110.692 58.0121 105.139 56.7488C101.92 56.0163 104.85 54.2646 94.7812 54.2646C84.4737 55.011 83.114 70.0458 93.5382 70.7217Z" fill="#505050"/>
<path d="M93.5382 70.7217C93.5382 85.8823 93.3782 82.5211 94.4704 82.5211C116.862 80.987 110.692 58.0121 105.139 56.7488C101.92 56.0163 104.85 54.2646 94.7812 54.2646C84.4737 55.011 83.114 70.0458 93.5382 70.7217Z" fill="#505050"/>
<path d="M108.249 39.9811C108.249 53.7472 93.6492 57.1628 82.4551 57.1628C79.0341 55.2997 75.207 49.6705 75.207 31.7009C75.207 20.3589 80.0867 30.6659 89.9157 24.9732C99.5491 22.9031 105.513 29.6212 108.249 39.9811Z" fill="#505050"/>
<path d="M108.249 39.9811C108.249 53.7472 93.6492 57.1628 82.4551 57.1628C79.0341 55.2997 75.207 49.6705 75.207 31.7009C75.207 20.3589 80.0867 30.6659 89.9157 24.9732C99.5491 22.9031 105.513 29.6212 108.249 39.9811Z" fill="#505050"/>
<path d="M108.249 39.9811C108.249 53.7472 93.6492 57.1628 82.4551 57.1628C79.0341 55.2997 75.207 49.6705 75.207 31.7009C75.207 20.3589 80.0867 30.6659 89.9157 24.9732C99.5491 22.9031 105.513 29.6212 108.249 39.9811Z" fill="#505050"/>
<path d="M108.249 39.9811C108.249 53.7472 93.6492 57.1628 82.4551 57.1628C79.0341 55.2997 75.207 49.6705 75.207 31.7009C75.207 20.3589 80.0867 30.6659 89.9157 24.9732C99.5491 22.9031 105.513 29.6212 108.249 39.9811Z" fill="#505050"/>
<path d="M21.2925 82.848C2.07382 78.1468 0.678048 106.146 22.6883 101.967" stroke="black" stroke-width="5" stroke-linecap="round"/>
<path d="M23.2063 100.531C22.1704 97.3222 21.4455 88.731 12.3303 90.3871" stroke="black" stroke-width="3" stroke-linecap="round"/>
<path d="M94.5204 83.055C113.247 78.3538 114.606 106.353 93.1606 102.174" stroke="black" stroke-width="5" stroke-linecap="round"/>
<path d="M92.5559 100.738C93.5715 97.5292 94.2821 88.938 103.219 90.5941" stroke="black" stroke-width="3" stroke-linecap="round"/>
<path d="M93.5503 82.1026C116.651 85.0178 114.06 53.2237 98.5103 54.679C118.914 45.8903 102.964 11.2074 81.4194 28.389C87.4271 -5.24957 25.6925 -6.07759 32.5288 28.389C8.91222 9.86189 -9.84073 46.7184 13.5734 54.679C-0.578105 54.679 -0.199589 84.532 21.2438 82.1026" stroke="black" stroke-width="5" stroke-linecap="round" stroke-linejoin="round"/>
<path d="M22.0814 68.0138V90.1343C22.0814 108.424 35.7713 123.956 53.8952 126.518C57.1607 126.979 60.5096 126.969 63.771 126.481C80.8885 123.918 93.5528 109.225 93.5528 91.9301V71.0154M19.9062 66.9788C26.8463 67.8067 35.0292 61.5965 35.0292 53.4198C40.0012 57.8704 51.6023 53.9373 52.7416 48.1411C57.8172 56.0074 72.7329 56.6284 77.912 50.0042C77.912 56.0074 83.4018 58.9054 88.4773 56.6284C83.4018 64.4946 88.4773 71.5329 95.935 70.6013" stroke="black" stroke-width="5" stroke-linecap="round" stroke-linejoin="round"/>
<path d="M29.3179 64.3047V88.6542C29.3179 104.674 86.4949 105.406 86.4949 88.6541V64.3047" stroke="black" stroke-width="3" stroke-linecap="round"/>
<path d="M78.8488 101.652C78.8488 103.278 78.4632 104.212 77.9556 104.782C77.4409 105.361 76.6161 105.775 75.3137 105.983C74.0042 106.192 72.3566 106.169 70.3731 105.991C68.521 105.825 66.4613 105.534 64.2063 105.216C64.0561 105.195 63.9049 105.174 63.7529 105.152C59.8597 104.603 55.913 104.61 52.0221 105.163C51.9381 105.175 51.8543 105.187 51.7708 105.199C49.468 105.527 47.3562 105.827 45.4567 105.995C43.4803 106.17 41.8279 106.191 40.5095 105.979C39.1967 105.77 38.357 105.352 37.832 104.769C37.3171 104.197 36.9272 103.267 36.9272 101.652C36.9272 97.8561 39.0977 94.2825 42.8844 91.6005C46.6677 88.9213 51.9678 87.2197 57.888 87.2197C63.8083 87.2197 69.1084 88.9213 72.8917 91.6005C76.6783 94.2825 78.8488 97.8561 78.8488 101.652Z" fill="#505050" stroke="black" stroke-width="3"/>
<path d="M68.3064 94.5767C68.0714 95.5791 67.0682 96.2012 66.0656 95.9659C65.0631 95.7316 64.4408 94.7283 64.6758 93.727C64.9108 92.7252 65.914 92.1033 66.9166 92.3382C67.9191 92.573 68.5414 93.5754 68.3064 94.5767Z" fill="black"/>
<path d="M67.2664 99.0119C67.0314 100.013 66.0282 100.635 65.0256 100.4C64.0231 100.166 63.4009 99.1635 63.6358 98.1611C63.8708 97.1597 64.874 96.5376 65.8765 96.7729C66.8791 97.0072 67.5014 98.0096 67.2664 99.0119Z" fill="black"/>
<path d="M72.676 96.7489C72.441 97.7513 71.4378 98.3725 70.4353 98.1381C69.4327 97.9028 68.8105 96.9005 69.0454 95.8991C69.2804 94.8967 70.2836 94.2755 71.2862 94.5099C72.2887 94.7452 72.911 95.7475 72.676 96.7489Z" fill="black"/>
<path d="M71.636 101.183C71.401 102.185 70.3978 102.807 69.3953 102.572C68.3927 102.337 67.7705 101.335 68.0054 100.333C68.2404 99.3317 69.2436 98.7096 70.2461 98.9439C71.2487 99.1792 71.871 100.182 71.636 101.183Z" fill="black"/>
<path d="M48.8955 100.909C50.9762 100.909 52.663 99.2238 52.663 97.1446C52.663 95.0654 50.9762 93.3799 48.8955 93.3799C46.8147 93.3799 45.1279 95.0654 45.1279 97.1446C45.1279 99.2238 46.8147 100.909 48.8955 100.909Z" fill="#505050" stroke="black" stroke-width="2.31786"/>
<path d="M39.6373 72.5654H39.6373C37.3603 72.5654 35.5144 74.4099 35.5144 76.6852V84.3363C35.5144 86.6116 37.3603 88.4561 39.6373 88.4561C41.9143 88.4561 43.7602 86.6116 43.7602 84.3363V76.6852C43.7602 74.4099 41.9143 72.5654 39.6373 72.5654Z" fill="black"/>
<path d="M76.1544 72.5654H76.1544C73.8774 72.5654 72.0315 74.4099 72.0315 76.6852V84.3363C72.0315 86.6116 73.8774 88.4561 76.1544 88.4561H76.1544C78.4314 88.4561 80.2773 86.6116 80.2773 84.3363V76.6852C80.2773 74.4099 78.4314 72.5654 76.1544 72.5654Z" fill="black"/>
<path d="M89.475 139.949L83.4293 136.4C82.7566 136.005 82.5316 135.14 82.9269 134.468L106.007 95.2153C107.383 92.8746 110.397 92.0921 112.739 93.4671C115.081 94.8426 115.865 97.8543 114.488 100.195L91.4088 139.448C91.0135 140.12 90.1477 140.345 89.475 139.949Z" fill="#7A7A7A" stroke="black" stroke-width="3"/>
<path d="M110.391 113.754L98.9296 106.751C96.4887 105.26 93.3001 106.028 91.8075 108.467L82.6836 123.377C81.1911 125.816 81.9599 129.002 84.4008 130.494L95.8622 137.497C98.3031 138.988 101.492 138.22 102.984 135.781L112.108 120.871C113.601 118.432 112.832 115.246 110.391 113.754Z" fill="white" stroke="black" stroke-width="5"/>
<path d="M128.176 91.6181L110.334 81.9072C109.721 81.5738 108.992 81.529 108.343 81.7848L93.6456 87.5793C92.5304 88.019 92.4355 89.5593 93.4884 90.1323L120.865 105.031C122.007 105.654 123.437 105.232 124.059 104.091L129.118 94.8103C129.741 93.6687 129.319 92.2397 128.176 91.6181Z" fill="white" stroke="black" stroke-width="5"/>
</svg>
