<svg width="79" height="79" viewBox="0 0 79 79" fill="none" xmlns="http://www.w3.org/2000/svg">
<circle cx="39.5" cy="39.5" r="39.5" fill="#20AAFF"/>
<g clip-path="url(#clip0_54_6)">
<path d="M50.5577 43.2831C50.472 43.242 47.2642 41.6624 46.6942 41.4573C46.4615 41.3737 46.2122 41.2921 45.9471 41.2921C45.5139 41.2921 45.1501 41.508 44.8667 41.932C44.5462 42.4083 43.5762 43.5421 43.2765 43.8808C43.2374 43.9256 43.1839 43.979 43.1519 43.979C43.1232 43.979 42.6268 43.7746 42.4765 43.7093C39.0355 42.2146 36.4237 38.6201 36.0655 38.014C36.0144 37.9268 36.0122 37.8873 36.0118 37.8873C36.0244 37.8411 36.1401 37.7251 36.1998 37.6653C36.3745 37.4924 36.5638 37.2646 36.747 37.0441C36.8337 36.9397 36.9205 36.8351 37.0058 36.7366C37.2715 36.4274 37.3898 36.1874 37.5269 35.9094L37.5988 35.765C37.9337 35.0997 37.6477 34.5383 37.5552 34.357C37.4794 34.2053 36.1249 30.9364 35.9809 30.593C35.6347 29.7643 35.1771 29.3784 34.5412 29.3784C34.4822 29.3784 34.5412 29.3784 34.2938 29.3888C33.9925 29.4016 32.3518 29.6176 31.6264 30.0748C30.8571 30.5598 29.5557 32.1058 29.5557 34.8247C29.5557 37.2717 31.1085 39.5821 31.7752 40.4608C31.7918 40.483 31.8222 40.528 31.8664 40.5926C34.4197 44.3214 37.6027 47.0848 40.8294 48.3738C43.9358 49.6147 45.4068 49.7581 46.2431 49.7581H46.2432C46.5947 49.7581 46.8759 49.7306 47.1241 49.7061L47.2815 49.6911C48.3547 49.596 50.7129 48.374 51.2494 46.8833C51.6719 45.7091 51.7834 44.4263 51.5022 43.9607C51.3097 43.6441 50.9778 43.4848 50.5577 43.2831Z" fill="white"/>
<path d="M40.3905 18C28.474 18 18.7791 27.622 18.7791 39.449C18.7791 43.2743 19.8028 47.0187 21.7421 50.2959L18.0303 61.2451C17.9611 61.4493 18.0125 61.675 18.1635 61.8287C18.2725 61.94 18.4204 62 18.5714 62C18.6293 62 18.6875 61.9913 18.7444 61.9731L30.1615 58.3451C33.2858 60.0144 36.817 60.8956 40.3907 60.8956C52.3061 60.8957 62 51.2747 62 39.449C62 27.622 52.3061 18 40.3905 18ZM40.3905 56.4277C37.0278 56.4277 33.7708 55.4567 30.9711 53.6196C30.877 53.5577 30.7677 53.526 30.6577 53.526C30.5995 53.526 30.5413 53.5349 30.4845 53.5529L24.7653 55.3709L26.6115 49.9239C26.6713 49.7476 26.6414 49.5531 26.5314 49.4029C24.3994 46.4897 23.2724 43.0479 23.2724 39.449C23.2724 30.0857 30.9515 22.468 40.3904 22.468C49.8281 22.468 57.5064 30.0857 57.5064 39.449C57.5065 48.8111 49.8284 56.4277 40.3905 56.4277Z" fill="white"/>
</g>
<defs>
<clipPath id="clip0_54_6">
<rect width="44" height="44" fill="white" transform="translate(18 18)"/>
</clipPath>
</defs>
</svg>
